<?xml version="1.0" encoding="utf-8"?>
<!-- Svg Vector Icons : http://www.sfont.cn -->
<!DOCTYPE svg PUBLIC "-//W3C//DTD SVG 1.1//EN" "http://www.w3.org/Graphics/SVG/1.1/DTD/svg11.dtd">
<svg version="1.1" xmlns="http://www.w3.org/2000/svg" xmlns:xlink="http://www.w3.org/1999/xlink" x="0px" y="0px" viewBox="0 0 1000 1000" enable-background="new 0 0 1000 1000" xml:space="preserve">
<metadata> Svg Vector Icons : http://www.sfont.cn </metadata>
<g><path d="M872.4,990h-50.8V10h50.8c28,0,50.8,22.7,50.8,50.7v878.6C923.2,967.3,900.4,990,872.4,990L872.4,990z M178.4,939.3v-50.6H263c56.1,0,101.6-45.4,101.6-101.4S319.1,685.8,263,685.8h-84.6v-84.5H263c56.1,0,101.6-45.4,101.6-101.4c0-56-45.5-101.4-101.6-101.4h-84.6v-84.5H263c56.1,0,101.6-45.4,101.6-101.4c0-56-45.5-101.4-101.6-101.4h-84.6V60.7c0-28,22.7-50.7,50.8-50.7h541.7v980H229.2C201.1,990,178.4,967.3,178.4,939.3L178.4,939.3z M313.8,212.8c0,28-22.7,50.7-50.8,50.7H127.6c-28,0-50.8-22.7-50.8-50.7c0-28,22.8-50.7,50.8-50.7H263C291.1,162.1,313.8,184.8,313.8,212.8L313.8,212.8z M127.6,449.3H263c28.1,0,50.8,22.7,50.8,50.7c0,28-22.7,50.7-50.8,50.7H127.6c-28,0-50.8-22.7-50.8-50.7C76.8,472,99.6,449.3,127.6,449.3z M127.6,736.6H263c28.1,0,50.8,22.7,50.8,50.7c0,28-22.7,50.7-50.8,50.7H127.6c-28,0-50.8-22.7-50.8-50.7C76.8,759.3,99.6,736.6,127.6,736.6z"/></g>
</svg>