<?xml version="1.0" encoding="utf-8"?>
<!-- Svg Vector Icons : http://www.sfont.cn -->
<!DOCTYPE svg PUBLIC "-//W3C//DTD SVG 1.1//EN" "http://www.w3.org/Graphics/SVG/1.1/DTD/svg11.dtd">
<svg version="1.1" xmlns="http://www.w3.org/2000/svg" xmlns:xlink="http://www.w3.org/1999/xlink" x="0px" y="0px" viewBox="0 0 1000 1000" enable-background="new 0 0 1000 1000" xml:space="preserve">
<metadata> Svg Vector Icons : http://www.sfont.cn </metadata>
<g><path d="M108.4,10c-34,0-62,28-62,62v55.5c-3.4,0-6.1,2.7-6.1,6.1c0,3.4,2.7,6.1,6.1,6.1v737.9c-5.7,5.7-5.7,15,0,20.7c5.7,5.7,15,5.7,20.7,0h342.2l76.8,76.8c0,8.2,6.6,14.8,14.8,14.8s14.8-6.6,14.8-14.8l0,0l76.8-76.8h342.2c5.7,5.7,15,5.7,20.7,0c5.7-5.7,5.7-15,0-20.7V137.8c2.3,0,4.2-1.9,4.2-4.2c0-2.3-1.9-4.2-4.2-4.2l0,0V72c0-34-28-62-62-62H108.4z M108.4,51.3h785c11.7,0,20.7,9,20.7,20.7v41.3H87.8V72C87.8,60.3,96.7,51.3,108.4,51.3z M87.8,154.6h826.3V857H583.6c-1.6-4.1-6.2-6.1-10.3-4.5c-4.1,1.6-6.1,6.2-4.5,10.3l-67.8,67.8l-67.8-67.8c1.6-4.1-0.4-8.7-4.5-10.3c-4.1-1.6-8.7,0.4-10.3,4.5H87.8V154.6z M226.6,299.2c-11.4,1.6-19.4,12.2-17.8,23.6s12.2,19.4,23.6,17.8h62c11.4,0,20.7-9.2,20.7-20.7s-9.2-20.7-20.7-20.7h-62c-0.2-0.5-0.7-0.8-1.3-0.7c-0.3,0.1-0.6,0.4-0.7,0.7c-0.2-0.5-0.7-0.8-1.3-0.7c-0.3,0.1-0.6,0.4-0.7,0.7c-0.2-0.5-0.7-0.8-1.3-0.7C226.9,298.7,226.7,298.9,226.6,299.2z M371.2,299.2c-11.4,1.6-19.4,12.2-17.8,23.6s12.2,19.4,23.6,17.8h392.5c11.4,0,20.7-9.2,20.7-20.7s-9.2-20.7-20.7-20.7H377c-0.2-0.5-0.7-0.8-1.3-0.7c-0.3,0.1-0.6,0.4-0.7,0.7c-0.2-0.5-0.7-0.8-1.3-0.7c-0.3,0.1-0.6,0.4-0.7,0.7c-0.2-0.5-0.7-0.8-1.3-0.7C371.5,298.7,371.3,298.9,371.2,299.2z M226.6,423.2c-11.4,1.6-19.4,12.2-17.8,23.6c1.6,11.4,12.2,19.4,23.6,17.8l0,0h62c11.4,0,20.7-9.3,20.7-20.7c0-11.4-9.2-20.7-20.7-20.7h-62c-0.2-0.5-0.7-0.8-1.3-0.7c-0.3,0.1-0.6,0.4-0.7,0.7c-0.2-0.5-0.7-0.8-1.3-0.7c-0.3,0.1-0.6,0.4-0.7,0.7c-0.2-0.5-0.7-0.8-1.3-0.7C226.9,422.6,226.7,422.9,226.6,423.2z M371.2,423.2c-11.4,1.6-19.4,12.2-17.8,23.6c1.6,11.4,12.2,19.4,23.6,17.8l0,0h392.5c11.4,0,20.7-9.3,20.7-20.7c0-11.4-9.2-20.7-20.7-20.7H377c-0.2-0.5-0.7-0.8-1.3-0.7c-0.3,0.1-0.6,0.4-0.7,0.7c-0.2-0.5-0.7-0.8-1.3-0.7c-0.3,0.1-0.6,0.4-0.7,0.7c-0.2-0.5-0.7-0.8-1.3-0.7C371.5,422.6,371.3,422.9,371.2,423.2z M226.6,547.1c-11.4,1.6-19.4,12.2-17.8,23.6s12.2,19.4,23.6,17.8h62c11.4,0,20.7-9.3,20.7-20.7c0-11.4-9.2-20.7-20.7-20.7h-62c-0.2-0.5-0.7-0.8-1.3-0.7c-0.3,0.1-0.6,0.4-0.7,0.7c-0.2-0.5-0.7-0.8-1.3-0.7c-0.3,0.1-0.6,0.4-0.7,0.7c-0.2-0.5-0.7-0.8-1.3-0.7C226.9,546.6,226.7,546.8,226.6,547.1z M371.2,547.1c-11.4,1.6-19.4,12.2-17.8,23.6s12.2,19.4,23.6,17.8h392.5c11.4,0,20.7-9.3,20.7-20.7c0-11.4-9.2-20.7-20.7-20.7H377c-0.2-0.5-0.7-0.8-1.3-0.7c-0.3,0.1-0.6,0.4-0.7,0.7c-0.2-0.5-0.7-0.8-1.3-0.7c-0.3,0.1-0.6,0.4-0.7,0.7c-0.2-0.5-0.7-0.8-1.3-0.7C371.5,546.6,371.3,546.8,371.2,547.1z M226.6,671.1c-11.4,1.6-19.4,12.2-17.8,23.6s12.2,19.4,23.6,17.8l0,0h62c11.4,0,20.7-9.2,20.7-20.7s-9.2-20.7-20.7-20.7h-62c-0.2-0.5-0.7-0.8-1.3-0.7c-0.3,0.1-0.6,0.4-0.7,0.7c-0.2-0.5-0.7-0.8-1.3-0.7c-0.3,0.1-0.6,0.4-0.7,0.7c-0.2-0.5-0.7-0.8-1.3-0.7C226.9,670.5,226.7,670.8,226.6,671.1z M371.2,671.1c-11.4,1.6-19.4,12.2-17.8,23.6s12.2,19.4,23.6,17.8h392.5c11.4,0,20.7-9.2,20.7-20.7s-9.2-20.7-20.7-20.7H377c-0.2-0.5-0.7-0.8-1.3-0.7c-0.3,0.1-0.6,0.4-0.7,0.7c-0.2-0.5-0.7-0.8-1.3-0.7c-0.3,0.1-0.6,0.4-0.7,0.7c-0.2-0.5-0.7-0.8-1.3-0.7C371.5,670.5,371.3,670.8,371.2,671.1z"/></g>
</svg>