<?xml version="1.0" encoding="utf-8"?>
<!-- Svg Vector Icons : http://www.sfont.cn -->
<!DOCTYPE svg PUBLIC "-//W3C//DTD SVG 1.1//EN" "http://www.w3.org/Graphics/SVG/1.1/DTD/svg11.dtd">
<svg version="1.1" xmlns="http://www.w3.org/2000/svg" xmlns:xlink="http://www.w3.org/1999/xlink" x="0px" y="0px" viewBox="0 0 1000 1000" enable-background="new 0 0 1000 1000" xml:space="preserve">
<metadata> Svg Vector Icons : http://www.sfont.cn </metadata>
<g><path d="M301.5,374.7h397v39.7h-397V374.7L301.5,374.7z"/><path d="M301.5,543.4h397v39.7h-397V543.4L301.5,543.4z"/><path d="M301.5,712.1h397v39.7h-397V712.1L301.5,712.1z"/><path d="M747.3,96.8V59.6c0-27.4-22.3-49.6-49.6-49.6H302.3c-27.4,0-49.6,22.3-49.6,49.6v37.2H122.9v813.8c0,43.8,35.5,79.4,79.4,79.4h595.5c43.8,0,79.4-35.5,79.4-79.4V96.8H747.3z M312.3,69.5h375.5v89.3H312.3V69.5z M817.6,890.8c0,21.9-17.8,39.7-39.7,39.7H222.1c-21.9,0-39.7-17.8-39.7-39.7V156.4h70.3v12.4c0,27.4,22.3,49.6,49.6,49.6h395.3c27.4,0,49.6-22.3,49.6-49.6v-12.4h70.3V890.8z"/></g>
</svg>