<?xml version="1.0" encoding="utf-8"?>
<!-- Svg Vector Icons : http://www.sfont.cn -->
<!DOCTYPE svg PUBLIC "-//W3C//DTD SVG 1.1//EN" "http://www.w3.org/Graphics/SVG/1.1/DTD/svg11.dtd">
<svg version="1.1" xmlns="http://www.w3.org/2000/svg" xmlns:xlink="http://www.w3.org/1999/xlink" x="0px" y="0px" viewBox="0 0 1000 1000" enable-background="new 0 0 1000 1000" xml:space="preserve">
<metadata> Svg Vector Icons : http://www.sfont.cn </metadata>
<g><path d="M777.7,402h-16.3V206c0-108.1-87.9-196-196-196H434.7c-108.1,0-196,87.9-196,196v196h-16.3c-27,0-49,22-49,49v490c0,27,22,49,49,49h555.3c26.9,0,49-22,49-49V451C826.7,424,804.6,402,777.7,402z M565.3,859.3H434.7l28.4-142.1c-17.2-11.8-28.4-31.5-28.4-53.9c0-36.1,29.3-65.3,65.3-65.3s65.3,29.3,65.3,65.3c0,22.4-11.3,42.1-28.4,53.9L565.3,859.3z M630.7,402H369.3V206c0-36,29.3-65.3,65.3-65.3h130.7c36,0,65.3,29.3,65.3,65.3V402L630.7,402z"/></g>
</svg>