<?xml version="1.0" encoding="utf-8"?>
<!-- Svg Vector Icons : http://www.sfont.cn -->
<!DOCTYPE svg PUBLIC "-//W3C//DTD SVG 1.1//EN" "http://www.w3.org/Graphics/SVG/1.1/DTD/svg11.dtd">
<svg version="1.1" xmlns="http://www.w3.org/2000/svg" xmlns:xlink="http://www.w3.org/1999/xlink" x="0px" y="0px" viewBox="0 0 1000 1000" enable-background="new 0 0 1000 1000" xml:space="preserve">
<metadata> Svg Vector Icons : http://www.sfont.cn </metadata>
<g><g transform="translate(0.000000,511.000000) scale(0.100000,-0.100000)"><path d="M6344.8,4869.4c-394-63.2-758.7-250.5-1040.8-532.6c-479.1-481.5-598.2-1169.7-376.9-2154.5c34-145.9,58.4-267.5,53.5-269.9c-2.4-2.4-508.2,192.1-1123.5,432.9c-615.2,240.7-1145.4,442.6-1179.4,449.9c-55.9,9.7-406.1-121.6-2193.5-824.4c-192.1-72.9-325.9-141-347.7-172.6c-31.6-46.2-36.5-440.1-36.5-3197.8V-4544l60.8-58.4c31.6-34.1,82.7-60.8,111.9-60.8c29.2,0,573.9,204.3,1211,452.3l1160,449.9l1130.8-440.1c620.1-243.2,1152.7-447.5,1184.3-454.7c36.5-9.7,447.5,141,1220.7,442.6l1167.2,454.7L8509-4210.8c639.6-248,1181.9-452.3,1206.2-452.3c21.9,0,75.4,31.6,114.3,70.5l70.5,70.5v3117.5c0,2679.8-4.9,3124.8-36.5,3183.2c-29.2,55.9-90,90-345.3,189.7c-170.2,68.1-488.8,192.1-707.6,277.2c-381.8,148.3-396.4,155.6-381.8,214c7.3,36.5,21.9,182.4,34.1,325.8c38.9,469.3-38.9,938.7-204.3,1220.8c-223.7,384.2-683.3,719.8-1135.6,826.8C6928.4,4879.1,6524.7,4898.5,6344.8,4869.4z M6991.6,4468.1c393.9-82.7,790.3-374.5,950.8-702.8c248-500.9,187.2-1284-175.1-2239.7C7507.1,842.4,7062.1,44.8,6738.7-315.2l-94.8-104.6l-73,85.1c-214,243.2-622.5,907-807.3,1305.9c-357.5,773.3-525.3,1376.4-549.6,1964.9c-17,476.6,48.6,744.1,252.9,1014C5795.2,4378.1,6417.7,4589.7,6991.6,4468.1z M2458.8-551c0-2271.3-7.3-2869.5-29.2-2879.2c-201.8-80.2-1921.1-746.6-1928.4-746.6s-9.7,1291.3-7.3,2871.9l7.3,2871.9l948.4,372.1c522.8,204.3,963,372.1,980,374.5C2451.5,2316,2458.8,1727.5,2458.8-551z M3823,1941.5l958.1-372.1l7.3-2874.3c2.4-1578.2,2.4-2871.9-2.4-2871.9c-4.9,0-440.2,167.8-967.9,374.5L2860-3430.2l-7.3,2874.3c-2.4,1578.2-2.4,2871.9,2.4,2871.9C2860,2316,3295.3,2148.2,3823,1941.5z M8528.5,1941.5c77.8-31.6,333.2-128.9,564.2-218.9l418.3-165.4v-2867c0-1575.8-7.3-2867.1-17-2867.1c-12.2,0-452.3,170.2-980,374.5l-960.5,374.5l-7.3,1801.9l-4.9,1799.5l75.4,126.5c223.7,381.8,537.4,1106.4,656.6,1512.5c29.2,102.1,65.7,187.3,82.7,187.3C8370.4,1999.9,8448.2,1973.1,8528.5,1941.5z M5505.8,621.1c218.9-432.8,535-919.2,807.3-1245c265.1-316.1,359.9-333.2,576.3-102.1c73,75.4,160.5,175.1,197,221.3l65.7,85.1l-7.3-1502.8l-4.9-1505.3l-960.5-374.5c-527.7-206.7-963-374.5-965.4-374.5c-4.9,0-7.3,1228-7.3,2730.9v2728.4l107-243.2C5372.1,905.6,5457.2,718.3,5505.8,621.1z"/><path d="M6247.5,4215.2c-386.6-124-705.2-442.6-821.9-824.4c-65.7-211.6-65.7-527.7,0-739.3c124-406.1,493.6-751.4,899.8-843.8c155.6-36.5,452.3-31.6,605.5,9.7c428,111.9,778.2,462,890,890c41.3,153.2,46.2,449.9,9.7,605.5c-92.4,406.1-437.7,775.7-843.8,899.7C6782.5,4276,6442,4276,6247.5,4215.2z M6750.9,3869.9c282.1-51.1,505.8-216.4,637.1-464.5c60.8-116.7,68.1-153.2,68.1-372.1c0-211.6-7.3-260.2-63.2-376.9c-80.3-170.2-240.8-330.7-411-411c-116.7-55.9-165.4-63.2-376.9-63.2c-218.9,0-255.3,7.3-372.1,68.1c-525.3,274.8-637.1,965.4-223.7,1378.8c121.6,124,296.7,214,462,243.2c60.8,9.7,116.7,19.5,124,21.9C6602.5,3894.2,6673,3884.5,6750.9,3869.9z"/></g></g>
</svg>