<?xml version="1.0" encoding="utf-8"?>
<!-- Svg Vector Icons : http://www.sfont.cn -->
<!DOCTYPE svg PUBLIC "-//W3C//DTD SVG 1.1//EN" "http://www.w3.org/Graphics/SVG/1.1/DTD/svg11.dtd">
<svg version="1.1" xmlns="http://www.w3.org/2000/svg" xmlns:xlink="http://www.w3.org/1999/xlink" x="0px" y="0px" viewBox="0 0 1000 1000" enable-background="new 0 0 1000 1000" xml:space="preserve">
<metadata> Svg Vector Icons : http://www.sfont.cn </metadata>
<g><path d="M891.8,578.7L578.4,399.7V88.4c0-43.2-35.2-78.4-78.4-78.4c-43.2,0-78.4,35.2-78.4,78.4v311.3L108.2,578.7C85.3,591.9,75.7,620,86,644.4c10.3,24.3,37.2,37.3,62.5,29.9l273.1-78V829l-84.9,67.9c-20.2,16.2-25.5,44.7-12.5,67.1c13,22.4,40.6,31.8,64.6,22.2L500,941.7l111.3,44.5c6.3,2.5,12.9,3.7,19.4,3.7c18.1,0,35.6-9.4,45.2-26c13-22.4,7.7-51-12.5-67.1L578.4,829V596.3l273.1,78c4.7,1.4,9.6,2,14.3,2c20.6,0,39.8-12.2,48.2-32C924.3,620.1,914.8,591.9,891.8,578.7L891.8,578.7z M500.1,101.5c-14.4,0-26.1-11.7-26.1-26.1s11.7-26.1,26.1-26.1c14.4,0,26.1,11.7,26.1,26.1S514.5,101.5,500.1,101.5z"/></g>
</svg>