<?xml version="1.0" encoding="utf-8"?>
<!-- Svg Vector Icons : http://www.sfont.cn -->
<!DOCTYPE svg PUBLIC "-//W3C//DTD SVG 1.1//EN" "http://www.w3.org/Graphics/SVG/1.1/DTD/svg11.dtd">
<svg version="1.1" xmlns="http://www.w3.org/2000/svg" xmlns:xlink="http://www.w3.org/1999/xlink" x="0px" y="0px" viewBox="0 0 1000 1000" enable-background="new 0 0 1000 1000" xml:space="preserve">
<metadata> Svg Vector Icons : http://www.sfont.cn </metadata>
<g><path d="M384.3,585.6L219.1,750.8l-29.3-29.3l165.2-165.1l-46.2-46.2l-212,212h-0.1v0.1h0l0,0L11,985.8l263.6-85.6v0l0,0l0.1,0v0l212-212L384.3,585.6z"/><path d="M554.8,356.4l76.4-76.4l29.3,29.3l-76.4,76.5l102.5,102.5L808.8,366l-178-178L508.6,310.2L554.8,356.4z"/><path d="M808.4,10.4L691.2,127.6l178,178l117.2-117.2L808.4,10.4z"/><path d="M768.2,562.5c-21.1,0-43.7,6.9-66,18.3L418.9,297.5c11.3-22.2,18.1-44.6,18.1-65.2c0-112.7-107.1-221.8-219.7-221.8c-0.7,0-1.4,0-2.1,0c-0.4,0-13.3,13-20.2,20c90.8,90.9,83.3,76.1,83.3,131.8c0,45.2-72.4,116.6-116.6,116.6c-9.7,0-17.2,0.3-23.5,0.3c-30.7,0-31.2-6.5-108.3-83.6c-7.2,7.2-20,19.8-20,20.2c1.4,113.4,108.4,221.8,221.8,221.8c20.5,0,42.5-6.5,64.1-17.4l284.3,284.3c-10.8,21.6-17.2,43.4-17.2,63.3c0,112.7,107.1,221.8,219.7,221.8c0.7,0,1.4,0,2,0c0.4,0,13.2-13,20.2-20c-90.8-90.8-83.3-76.1-83.3-131.8c0-45.2,72.4-116.6,116.6-116.6c9.7,0,17.2-0.3,23.5-0.3c30.7,0,31.2,6.5,108.3,83.6c7.2-7.2,20-19.8,20-20.2C988.6,670.9,881.6,562.5,768.2,562.5z"/></g>
</svg>