<?xml version="1.0" encoding="utf-8"?>
<!-- Svg Vector Icons : http://www.sfont.cn -->
<!DOCTYPE svg PUBLIC "-//W3C//DTD SVG 1.1//EN" "http://www.w3.org/Graphics/SVG/1.1/DTD/svg11.dtd">
<svg version="1.1" xmlns="http://www.w3.org/2000/svg" xmlns:xlink="http://www.w3.org/1999/xlink" x="0px" y="0px" viewBox="0 0 1000 1000" enable-background="new 0 0 1000 1000" xml:space="preserve">
<metadata> Svg Vector Icons : http://www.sfont.cn </metadata>
<g><g transform="translate(0.000000,511.000000) scale(0.100000,-0.100000)"><path d="M4661.5,4990.4c-294.2-18.4-416.7-65.4-580.1-216.5c-153.2-143-204.3-265.6-236.9-569.9c-30.6-300.3-67.4-396.3-214.5-551.5c-145-153.2-286-218.6-500.5-230.8c-198.1-10.2-333,26.6-467.8,130.7c-245.1,185.9-402.4,243.1-633.2,228.8c-273.7-18.4-424.9-116.4-729.3-473.9c-179.8-210.4-226.7-328.9-228.8-574c-2.1-165.5,4.1-198.1,63.3-320.7c36.8-79.7,116.4-192,190-271.7c177.7-192,214.5-279.9,214.5-520.9c-2-165.5-8.2-210.4-55.2-310.5c-71.5-155.2-218.6-310.5-359.5-375.9c-65.4-30.6-192-65.4-304.4-81.7c-375.8-57.2-600.6-243.1-692.5-576C94,161.4,94,110.3,112.4-175.7c18.4-275.8,28.6-341.1,73.5-439.2c73.5-157.3,143-245.1,265.6-324.8c151.2-98.1,220.6-118.5,478-136.9c198.1-12.3,247.2-22.5,361.6-79.7c155.2-75.6,281.9-206.3,355.4-365.6c44.9-98.1,55.2-145,55.2-300.3c0-212.5-44.9-335-190-510.7c-216.5-259.4-257.4-559.7-110.3-847.7c40.9-81.7,112.3-161.4,269.6-302.3c371.8-333,476-384,761.9-367.7c210.4,12.2,333,69.4,500.5,241c155.3,157.3,304.4,228.8,506.6,241c388.1,24.5,708.8-208.4,798.7-578.1c63.3-259.4,349.3-649.6,576.1-782.4c91.9-53.1,100.1-55.2,390.2-49c339.1,6.1,494.3,38.8,637.3,128.7c222.6,143,318.7,324.8,345.2,649.6c8.2,118.5,30.6,255.3,47,304.4c104.2,292.1,398.3,498.4,717,500.5c183.8,2.1,314.6-42.9,469.8-161.4c267.6-206.3,492.3-255.3,770.1-171.6c143,42.9,157.3,53.1,351.4,251.3c369.7,377.9,453.5,533.1,437.1,819.1c-10.2,190-79.7,339.1-237,508.6c-145,155.2-194.1,245.1-228.8,410.6c-49,234.9,22.5,478,196.1,663.9c132.8,143,277.8,214.5,506.6,245.1c206.3,28.6,314.6,77.6,449.4,206.3c212.4,200.2,261.5,404.5,220.6,911.1c-24.5,318.7-79.7,451.5-251.3,608.7c-155.3,143-292.1,196.1-549.5,210.4c-253.3,14.3-375.9,61.3-531.1,204.3c-339.1,312.5-347.3,808.9-18.4,1119.4c34.7,34.7,87.9,108.3,116.4,163.4c47,87.8,55.2,126.7,55.2,286c0,190-30.6,281.9-134.8,416.7c-81.7,102.1-502.5,453.5-610.8,508.7c-100.1,49-134.8,55.2-316.6,55.2c-177.7,0-218.6-6.1-318.7-53.1c-63.3-30.6-181.8-114.4-261.5-187.9c-181.8-167.5-314.6-222.7-533.1-222.7c-412.6,0-723.1,279.9-764,694.5c-24.5,220.6-83.8,357.5-220.6,494.3C5356.1,4980.2,5166.1,5023.1,4661.5,4990.4z M5317.3,739.5c145-53.1,300.3-204.3,373.8-359.5c45-96,53.1-149.1,55.2-281.9c0-145-8.2-179.8-67.4-300.3c-77.6-157.3-187.9-265.6-349.3-339.1c-163.4-75.6-392.2-75.6-555.6,0c-161.4,73.5-271.7,181.8-349.3,339.1c-59.2,120.5-67.4,155.2-67.4,300.3c2.1,200.2,61.3,349.3,200.2,488.2C4765.7,792.6,5031.3,847.7,5317.3,739.5z M6391.7,61.3c218.6-147.1,218.6-433.1,0-580.1c-96-65.4-255.3-65.4-351.3,0C5932.1-445.3,5879-351.3,5879-228.8c0,192,145,337.1,337.1,337.1C6293.7,108.3,6340.7,96,6391.7,61.3z M6491.8-913.1l194.1-206.3l345.2-102.1c190-55.1,357.5-110.3,373.8-122.6c28.6-24.5,34.7-116.4,10.2-153.2c-49-73.5-94-71.5-455.5,34.7c-400.4,116.4-447.4,136.9-502.5,214.5l-40.8,55.2l-22.5-212.5c-14.3-116.4-30.6-273.7-36.8-349.3l-14.3-138.9h232.9c265.6,0,345.2-26.6,420.8-141c42.9-63.3,47-94,47-330.9c0-241-4.1-265.6-44.9-314.6c-28.6-30.6-77.6-57.2-122.6-65.4c-65.4-10.2-83.7-2-138.9,51.1c-59.2,59.2-61.3,67.4-61.3,247.2v185.9h-232.9H6212l-14.3-75.6c-6.1-42.9-12.2-151.2-12.2-241c0-89.9-8.2-194.1-18.4-230.8c-20.4-65.4-355.4-531.1-435.1-600.6c-100.1-87.8-271.7-12.2-294.1,128.7c-12.3,65.4,2,91.9,175.7,324.8l190,253.3l26.6,520.9c14.3,288,40.9,659.8,59.2,827.3c18.4,165.5,30.6,310.5,26.6,318.7c-4.1,8.2-65.4-4.1-138.9-28.6l-132.8-42.9L5450-1434c-202.2-339.1-255.3-396.3-335-353.4c-55.2,28.6-73.6,57.2-73.6,112.3c0,59.2,402.4,735.4,459.6,774.2c26.5,16.3,173.6,71.5,330.9,120.5c204.3,65.4,306.4,87.8,373.8,81.7C6293.7-704.7,6308-714.9,6491.8-913.1z"/></g></g>
</svg>